<?xml version="1.0" encoding="utf-8"?>
<!-- Generator: Adobe Illustrator 16.0.0, SVG Export Plug-In . SVG Version: 6.00 Build 0)  -->
<!DOCTYPE svg PUBLIC "-//W3C//DTD SVG 1.1//EN" "http://www.w3.org/Graphics/SVG/1.1/DTD/svg11.dtd">
<svg version="1.1" id="Layer_1" xmlns="http://www.w3.org/2000/svg" xmlns:xlink="http://www.w3.org/1999/xlink" x="0px" y="0px"
	 width="80px" height="48px" viewBox="0 0 80 48" enable-background="new 0 0 80 48" xml:space="preserve">
<g>
	<path fill="#4B5058" d="M30.846,37.3h4.432l0.775,2.475h2.725l-4.232-12.018h-2.9l-4.277,12.018h2.644L30.846,37.3z M33.051,30.474
		h0.036l1.486,4.753h-3.062L33.051,30.474z M26.635,36.215c0-1.186-0.381-2.357-1.854-2.907c0.498-0.255,1.473-0.739,1.473-2.46
		c0-1.245-0.755-3.084-3.699-3.084h-5.844v12.019h5.09c2.461,0,3.113-0.417,3.801-1.091C26.232,38.076,26.635,37.168,26.635,36.215
		L26.635,36.215z M19.12,29.837h2.886c1.135,0,1.838,0.299,1.838,1.288c0,0.96-0.783,1.34-1.779,1.34H19.12V29.837z M22.203,37.703
		H19.12v-3.216h3.2c0.901,0,1.81,0.409,1.81,1.458C24.13,37.168,23.42,37.703,22.203,37.703L22.203,37.703z M58.104,32.686
		l5.186,7.089h-3.229l-3.714-5.272l-1.172,1.208v4.064h-2.512V27.757h2.512v4.892l4.585-4.892h3.245L58.104,32.686z M27.367,46.447
		c0-1.143-0.279-1.334-0.783-1.561c0.607-0.204,0.951-0.783,0.951-1.465c0-0.535-0.3-1.735-1.934-1.735h-3.112v6.152h1.26v-2.41
		h1.325c0.953,0,1.012,0.33,1.012,1.172c0,0.631,0.043,0.952,0.131,1.238h1.421v-0.161C27.367,47.575,27.367,47.349,27.367,46.447
		L27.367,46.447z M25.258,44.396h-1.509v-1.648h1.604c0.746,0,0.9,0.476,0.9,0.806C26.254,44.162,25.924,44.396,25.258,44.396
		L25.258,44.396z M29.425,17.238c-0.007-0.277-0.015-0.606-0.029-0.994c-0.022-0.389,0.073-0.815,0.117-1.291
		c0.052-0.477,0.117-1.004,0.293-1.529c0.154-0.534,0.286-1.123,0.587-1.672c0.123-0.283,0.256-0.568,0.395-0.863
		c0.146-0.286,0.344-0.543,0.513-0.826c0.345-0.573,0.783-1.084,1.237-1.592c0.432-0.526,0.975-0.93,1.465-1.398
		c0.535-0.381,1.048-0.818,1.604-1.133c0.543-0.339,1.077-0.645,1.598-0.896c0.52-0.284,1.032-0.476,1.508-0.679
		c0.726-0.286,1.37-0.508,1.897-0.662c-0.22-0.541-0.41-1.111-0.55-1.721C39.912,1.359,39.781,0.725,39.773,0
		c0.695,0.195,1.281,0.477,1.846,0.775c0.571,0.301,1.084,0.638,1.566,0.994c0.975,0.721,1.803,1.546,2.557,2.441
		c0.571,0.672,0.622,1.609,0.198,2.326l-0.088,0.147c-0.696,1.157-1.517,2.235-2.513,3.2c-0.49,0.483-1.033,0.931-1.641,1.35
		c-0.308,0.203-0.623,0.402-0.944,0.592c-0.345,0.183-0.696,0.354-1.091,0.507c-0.022-0.42-0.016-0.815,0.014-1.203
		c0.037-0.374,0.081-0.737,0.14-1.106c0.132-0.715,0.315-1.398,0.557-2.049c0.022-0.072,0.052-0.141,0.073-0.206
		c-0.227,0.031-0.469,0.06-0.732,0.095c-0.402,0.09-0.871,0.146-1.333,0.286c-0.476,0.103-0.967,0.256-1.458,0.44
		c-0.52,0.154-0.988,0.416-1.516,0.623c-0.461,0.291-0.996,0.525-1.436,0.871c-0.461,0.336-0.93,0.672-1.311,1.092
		c-0.19,0.196-0.418,0.381-0.594,0.592c-0.16,0.227-0.329,0.446-0.498,0.66c-0.358,0.416-0.586,0.899-0.827,1.354
		c-0.271,0.441-0.433,0.902-0.578,1.326c-0.132,0.434-0.323,0.82-0.374,1.193c-0.073,0.365-0.132,0.688-0.184,0.953
		c-0.102,0.533-0.16,0.841-0.16,0.841S29.447,17.779,29.425,17.238L29.425,17.238z M16.711,41.687h5.01v1.091h-1.867v5.062H18.57
		v-5.062h-1.859V41.687z M30.223,41.687l-2.189,6.152h1.355l0.424-1.268h2.271l0.396,1.268h1.399l-2.168-6.152H30.223z
		 M30.157,45.51l0.791-2.439h0.015l0.77,2.439H30.157z M41.523,20.914c-0.506,0.293-1.018,0.5-1.479,0.72
		c-0.719,0.308-1.355,0.542-1.883,0.718c0.242,0.535,0.447,1.099,0.607,1.699c0.162,0.623,0.309,1.252,0.345,1.978
		c-0.71-0.169-1.296-0.438-1.875-0.718c-0.578-0.285-1.099-0.601-1.597-0.952c-0.988-0.688-1.846-1.495-2.621-2.36
		c-0.594-0.649-0.674-1.588-0.271-2.319l0.088-0.154c0.659-1.172,1.443-2.271,2.409-3.267c0.477-0.499,1.011-0.969,1.597-1.398
		c0.301-0.214,0.607-0.417,0.931-0.617c0.337-0.195,0.688-0.381,1.069-0.541c0.043,0.416,0.043,0.814,0.029,1.193
		c-0.029,0.381-0.066,0.754-0.11,1.122c-0.11,0.718-0.271,1.406-0.491,2.063c-0.021,0.066-0.051,0.141-0.072,0.207
		c0.227-0.039,0.469-0.073,0.732-0.119c0.402-0.101,0.863-0.176,1.325-0.322c0.468-0.123,0.952-0.283,1.442-0.481
		c0.514-0.169,0.975-0.448,1.494-0.675c0.454-0.299,0.988-0.55,1.406-0.914c0.455-0.347,0.908-0.696,1.274-1.123
		c0.198-0.203,0.41-0.395,0.578-0.615c0.162-0.225,0.322-0.452,0.484-0.672c0.344-0.434,0.557-0.917,0.784-1.379
		c0.263-0.446,0.409-0.906,0.533-1.346c0.118-0.434,0.3-0.829,0.345-1.193c0.059-0.373,0.11-0.695,0.153-0.961
		c0.089-0.542,0.132-0.848,0.132-0.848s0.022,0.314,0.052,0.855c0.015,0.271,0.037,0.607,0.058,0.988
		c0.037,0.389-0.05,0.822-0.08,1.298c-0.029,0.483-0.088,1.003-0.248,1.536c-0.14,0.542-0.257,1.13-0.528,1.687
		c-0.125,0.286-0.249,0.577-0.375,0.876c-0.137,0.288-0.328,0.557-0.489,0.845c-0.321,0.586-0.746,1.097-1.186,1.626
		c-0.425,0.535-0.945,0.957-1.421,1.434c-0.527,0.403-1.033,0.857-1.574,1.187C42.57,20.323,42.044,20.645,41.523,20.914
		L41.523,20.914z M46.629,41.687h4.379v1.091h-3.091v1.385h2.711v1.092h-2.711v2.592h-1.288V41.687z M38.463,41.687h1.201v6.152
		h-1.289l-2.506-4.388h-0.021v4.388h-1.201v-6.152h1.355l2.445,4.284h0.016V41.687z M62.478,46.447c0-1.143-0.279-1.334-0.784-1.561
		c0.607-0.204,0.952-0.783,0.952-1.465c0-0.535-0.3-1.735-1.934-1.735H57.6v6.152h1.259v-2.41h1.334c0.944,0,1.003,0.33,1.003,1.172
		c0,0.631,0.052,0.952,0.132,1.238h1.421v-0.161C62.478,47.575,62.478,47.349,62.478,46.447L62.478,46.447z M60.368,44.396h-1.51
		v-1.648h1.604c0.754,0,0.901,0.476,0.901,0.806C61.364,44.162,61.034,44.396,60.368,44.396L60.368,44.396z M45.646,45.985
		c0,1.854-1.889,2.015-2.424,2.015c-2.248,0-2.629-1.289-2.629-2.058h1.23c0.007,0.344,0.183,0.995,1.303,0.995
		c0.608,0,1.29-0.146,1.29-0.791c0-0.483-0.469-0.608-1.121-0.769l-0.659-0.154c-0.996-0.228-1.947-0.454-1.947-1.809
		c0-0.688,0.358-1.896,2.357-1.896c1.89,0,2.395,1.237,2.402,1.991h-1.23c-0.037-0.278-0.139-0.93-1.26-0.93
		c-0.49,0-1.076,0.183-1.076,0.739c0,0.477,0.396,0.579,0.652,0.645l1.5,0.366C44.878,44.535,45.646,44.879,45.646,45.985
		L45.646,45.985z M53.132,46.747h3.413v1.092h-4.673v-6.152h4.526v1.091h-3.267v1.289h3.003v1.092h-3.003V46.747z M42.615,39.782
		h-2.344V27.764h2.644l4.775,8.364h0.03v-8.364h2.343v12.019h-2.505l-4.906-8.569h-0.037V39.782z M42.615,39.782"/>
</g>
</svg>
