<?xml version="1.0" encoding="utf-8"?>
<!-- Generator: Adobe Illustrator 16.0.0, SVG Export Plug-In . SVG Version: 6.00 Build 0)  -->
<!DOCTYPE svg PUBLIC "-//W3C//DTD SVG 1.1//EN" "http://www.w3.org/Graphics/SVG/1.1/DTD/svg11.dtd">
<svg version="1.1" id="Layer_1" xmlns="http://www.w3.org/2000/svg" xmlns:xlink="http://www.w3.org/1999/xlink" x="0px" y="0px"
	 width="80px" height="48px" viewBox="0 0 80 48" enable-background="new 0 0 80 48" xml:space="preserve">
<g>
	<g>
		<g>
			<path fill="#4B5058" d="M37.602,10.409c-2.71,0-4.915,2.206-4.915,4.917v3.469c0,2.711,2.205,4.917,4.915,4.917
				c2.712,0,4.917-2.206,4.917-4.917v-3.469C42.519,12.615,40.313,10.409,37.602,10.409z M37.602,21.977
				c-1.657,0-3.021-1.275-3.167-2.896c0.857,0.725,1.963,1.16,3.167,1.16c1.208,0,2.313-0.436,3.17-1.16
				C40.625,20.701,39.261,21.977,37.602,21.977z M37.602,18.506c-1.753,0-3.18-1.426-3.18-3.18s1.427-3.183,3.18-3.183
				c1.755,0,3.181,1.429,3.181,3.183S39.356,18.506,37.602,18.506z"/>
		</g>
	</g>
	<g>
		<g>
			<path fill="#4B5058" d="M37.602,13.302c-0.478,0-0.867,0.389-0.867,0.868v2.313c0,0.479,0.39,0.867,0.867,0.867
				c0.479,0,0.868-0.388,0.868-0.867V14.17C38.47,13.69,38.081,13.302,37.602,13.302z"/>
		</g>
	</g>
	<g>
		<g>
			<path fill="#4B5058" d="M53.217,0c-4.306,0-7.806,3.502-7.806,7.807v3.468v0.002c0,4.305,3.5,7.808,7.806,7.808
				c4.301,0,7.8-3.496,7.808-7.793c0-0.004,0.001-0.01,0.001-0.015v-3.47C61.025,3.502,57.521,0,53.217,0z M53.217,17.35
				c-2.748,0-5.075-1.836-5.821-4.348c1.431,1.602,3.511,2.613,5.821,2.613c2.312,0,4.391-1.011,5.821-2.611
				C58.292,15.514,55.966,17.35,53.217,17.35z M53.217,13.881c-3.347,0-6.071-2.725-6.071-6.074c0-3.348,2.725-6.072,6.071-6.072
				c3.349,0,6.073,2.725,6.073,6.072C59.29,11.156,56.565,13.881,53.217,13.881z"/>
		</g>
	</g>
	<g>
		<g>
			<path fill="#4B5058" d="M53.219,4.627L53.219,4.627c-0.48,0-0.868,0.389-0.868,0.867l-0.003,4.626
				c0,0.479,0.39,0.867,0.868,0.869l0,0c0.48,0,0.868-0.39,0.868-0.867l0.001-4.628C54.085,5.016,53.698,4.627,53.219,4.627z"/>
		</g>
	</g>
	<g>
		<g>
			<path fill="#4B5058" d="M69.104,29.355c-1.192-2.062-3.833-2.776-5.901-1.604c-0.375,0.186-5.174,2.544-9.128,4.207
				c-0.443,0.188-0.65,0.695-0.465,1.138c0.187,0.44,0.695,0.648,1.138,0.463c4.146-1.745,9.198-4.237,9.249-4.264
				c0.016-0.008,0.033-0.017,0.048-0.025c1.242-0.718,2.837-0.289,3.556,0.952c0.831,1.437-0.466,3.015-1.102,3.658
				c-4.308,3.476-16.225,12.383-20.231,12.383c-4.439,0-16.899-2.639-19.946-3.298V28.795c6.043-0.888,9.242,0.226,15.95,2.563
				c2.041,0.713,4.353,1.517,7.162,2.414c0.42,0.185,1.581,0.837,1.138,2.316c-0.27,0.898-1.138,1.756-2.408,1.519
				c-1.707-0.322-11.758-1.685-12.186-1.742c-0.475-0.064-0.912,0.27-0.975,0.744c-0.065,0.474,0.268,0.911,0.741,0.976
				c0.104,0.014,10.435,1.415,12.1,1.728c0.259,0.049,0.509,0.072,0.751,0.072c1.842,0,3.196-1.323,3.638-2.798
				c0.466-1.554-0.018-3.52-2.143-4.42c-0.003,0-0.006-0.002-0.008-0.002c-0.004-0.004-0.007-0.004-0.01-0.006
				c-0.011-0.005-0.023-0.007-0.034-0.013c-0.012-0.004-0.024-0.009-0.036-0.015c-2.806-0.896-5.118-1.699-7.159-2.412
				c-6.688-2.33-10.215-3.557-16.521-2.676v-0.727c0-0.478-0.39-0.866-0.868-0.866h-2.602v-0.868c0-0.479-0.39-0.866-0.867-0.866
				H11.265c-0.479,0-0.867,0.388-0.867,0.866v19.079c0,0.479,0.389,0.867,0.867,0.867c0.479,0,0.869-0.388,0.869-0.867V25.451h8.984
				v20.813h-1.734v-0.867c0-0.478-0.389-0.867-0.867-0.867s-0.867,0.39-0.867,0.867v0.867h-6.385c-0.479,0-0.867,0.39-0.867,0.867
				c0,0.48,0.389,0.869,0.867,0.869h10.721c0.478,0,0.867-0.389,0.867-0.869v-0.91h2.602c0.479,0,0.867-0.388,0.867-0.867V44.74
				C29.95,45.525,41.764,48,46.268,48c2.371,0,6.575-2.112,12.853-6.457c4.526-3.135,8.467-6.31,8.507-6.341
				c0.024-0.02,0.046-0.042,0.067-0.063C69.579,33.253,70.105,31.09,69.104,29.355z M24.587,43.649c0,0.002,0,0.002,0,0.002v0.835
				h-1.734l0,0V27.186h1.734V43.649L24.587,43.649z"/>
		</g>
	</g>
</g>
</svg>
