<?xml version="1.0" encoding="utf-8"?>
<!-- Generator: Adobe Illustrator 16.0.0, SVG Export Plug-In . SVG Version: 6.00 Build 0)  -->
<!DOCTYPE svg PUBLIC "-//W3C//DTD SVG 1.1//EN" "http://www.w3.org/Graphics/SVG/1.1/DTD/svg11.dtd">
<svg version="1.1" id="Layer_1" xmlns="http://www.w3.org/2000/svg" xmlns:xlink="http://www.w3.org/1999/xlink" x="0px" y="0px"
	 width="80px" height="48px" viewBox="0 0 80 48" enable-background="new 0 0 80 48" xml:space="preserve">
<g>
	<polygon fill-rule="evenodd" clip-rule="evenodd" fill="#4B5058" points="55.665,48.03 56.902,47.995 58.121,47.908 59.317,47.756 
		60.503,47.546 61.658,47.278 62.797,46.955 63.912,46.574 65.002,46.146 66.066,45.663 67.102,45.137 68.102,44.558 69.079,43.934 
		70.018,43.266 70.922,42.553 71.793,41.801 72.625,41.005 73.426,40.173 74.176,39.297 74.886,38.395 75.556,37.457 76.178,36.479 
		76.76,35.479 77.286,34.446 77.771,33.378 78.197,32.289 78.575,31.175 78.9,30.037 79.166,28.883 79.379,27.692 79.529,26.498 
		79.62,25.279 79.65,24.043 79.62,22.817 79.529,21.605 79.379,20.41 79.166,19.238 78.9,18.084 78.575,16.953 78.197,15.838 
		77.771,14.756 77.286,13.699 76.76,12.664 76.178,11.671 75.556,10.695 74.886,9.758 74.176,8.859 73.426,7.988 72.625,7.156 
		71.793,6.363 70.922,5.614 70.018,4.904 69.079,4.231 68.102,3.612 67.102,3.037 66.066,2.513 65.002,2.028 63.912,1.6 
		62.797,1.221 61.658,0.898 60.503,0.631 59.317,0.422 58.121,0.268 56.902,0.18 55.665,0.148 54.439,0.18 53.219,0.268 
		52.024,0.422 50.843,0.631 49.688,0.898 48.552,1.221 47.445,1.6 46.354,2.028 45.295,2.513 44.271,3.037 43.269,3.612 42.3,4.231 
		41.362,4.904 40.46,5.614 39.595,6.363 38.763,7.156 37.969,7.988 37.219,8.859 36.509,9.758 35.846,10.695 35.227,11.671 
		34.65,12.664 34.12,13.699 33.643,14.756 33.213,15.838 32.842,16.953 32.521,18.084 32.253,19.238 32.043,20.41 31.891,21.605 
		31.802,22.817 31.769,24.043 31.802,25.279 31.891,26.498 32.043,27.692 32.253,28.883 32.521,30.037 32.842,31.175 33.213,32.289 
		33.643,33.378 34.12,34.446 34.65,35.479 35.227,36.479 35.846,37.457 36.509,38.395 37.219,39.297 37.969,40.173 38.763,41.005 
		39.595,41.801 40.46,42.553 41.362,43.266 42.3,43.934 43.269,44.558 44.271,45.137 45.295,45.663 46.354,46.146 47.445,46.574 
		48.552,46.955 49.688,47.278 50.843,47.546 52.024,47.756 53.219,47.908 54.439,47.995 55.665,48.03 55.665,48.03 	"/>
	<polygon fill-rule="evenodd" clip-rule="evenodd" fill="#4B5058" points="23.636,48.03 24.863,47.995 26.082,47.908 27.277,47.756 
		28.457,47.546 29.611,47.278 30.751,46.955 31.857,46.574 32.947,46.146 34.005,45.663 35.031,45.137 36.033,44.558 37.005,43.934 
		37.938,43.266 38.845,42.553 39.708,41.801 40.539,41.005 41.331,40.173 42.083,39.297 42.793,38.395 43.455,37.457 44.076,36.479 
		44.649,35.479 45.183,34.446 45.66,33.378 46.087,32.289 46.459,31.175 46.781,30.037 47.047,28.883 47.258,27.692 47.41,26.498 
		47.501,25.279 47.534,24.043 47.501,22.817 47.41,21.605 47.258,20.41 47.047,19.238 46.781,18.084 46.459,16.953 46.087,15.838 
		45.66,14.756 45.183,13.699 44.649,12.664 44.076,11.671 43.455,10.695 42.793,9.758 42.083,8.859 41.331,7.988 40.539,7.156 
		39.708,6.363 38.845,5.614 37.938,4.904 37.005,4.231 36.033,3.612 35.031,3.037 34.005,2.513 32.947,2.028 31.857,1.6 
		30.751,1.221 29.611,0.898 28.457,0.631 27.277,0.422 26.082,0.268 24.863,0.18 23.636,0.148 22.4,0.18 21.181,0.268 19.984,0.422 
		18.799,0.631 17.645,0.898 16.506,1.221 15.391,1.6 14.3,2.028 13.234,2.513 12.201,3.037 11.199,3.612 10.223,4.231 9.285,4.904 
		8.381,5.614 7.508,6.363 6.676,7.156 5.877,7.988 5.127,8.859 4.416,9.758 3.745,10.695 3.123,11.671 2.542,12.664 2.017,13.699 
		1.532,14.756 1.104,15.838 0.725,16.953 0.402,18.084 0.135,19.238 -0.075,20.41 -0.229,21.605 -0.317,22.817 -0.35,24.043 
		-0.317,25.279 -0.229,26.498 -0.075,27.692 0.135,28.883 0.402,30.037 0.725,31.175 1.104,32.289 1.532,33.378 2.017,34.446 
		2.542,35.479 3.123,36.479 3.745,37.457 4.416,38.395 5.127,39.297 5.877,40.173 6.676,41.005 7.508,41.801 8.381,42.553 
		9.285,43.266 10.223,43.934 11.199,44.558 12.201,45.137 13.234,45.663 14.3,46.146 15.391,46.574 16.506,46.955 17.645,47.278 
		18.799,47.546 19.984,47.756 21.181,47.908 22.4,47.995 23.636,48.03 23.636,48.03 	"/>
	<polygon fill-rule="evenodd" clip-rule="evenodd" fill="#4B5058" points="36.85,9.328 49.569,9.328 49.569,8.027 37.947,8.027 
		36.85,9.328 36.85,9.328 	"/>
	<polygon fill-rule="evenodd" clip-rule="evenodd" fill="#4B5058" points="34.943,12.222 49.569,12.222 49.569,10.921 
		35.711,10.921 34.943,12.222 34.943,12.222 	"/>
	<polygon fill-rule="evenodd" clip-rule="evenodd" fill="#4B5058" points="33.521,15.104 49.569,15.104 49.569,13.803 
		34.087,13.803 33.521,15.104 33.521,15.104 	"/>
	<polygon fill-rule="evenodd" clip-rule="evenodd" fill="#4B5058" points="32.543,17.995 49.569,17.995 49.569,16.694 
		32.947,16.694 32.543,17.995 32.543,17.995 	"/>
	<polygon fill-rule="evenodd" clip-rule="evenodd" fill="#4B5058" points="33.111,31.966 49.608,31.966 49.608,30.666 
		32.704,30.666 33.111,31.966 33.111,31.966 	"/>
	<polygon fill-rule="evenodd" clip-rule="evenodd" fill="#4B5058" points="34.33,34.855 49.608,34.855 49.608,33.559 33.722,33.559 
		34.33,34.855 34.33,34.855 	"/>
	<polygon fill-rule="evenodd" clip-rule="evenodd" fill="#4B5058" points="36.04,37.74 49.608,37.74 49.608,36.439 35.227,36.439 
		36.04,37.74 36.04,37.74 	"/>
	<polygon fill-rule="evenodd" clip-rule="evenodd" fill="#4B5058" points="38.398,40.633 49.608,40.633 49.608,39.323 
		37.261,39.323 38.398,40.633 38.398,40.633 	"/>
	<polygon fill-rule="evenodd" clip-rule="evenodd" fill="#4B5058" points="31.97,20.879 49.569,20.879 49.569,19.578 32.223,19.578 
		31.97,20.879 31.97,20.879 	"/>
	<polygon fill-rule="evenodd" clip-rule="evenodd" fill="#4B5058" points="42.696,29.082 49.405,29.082 49.405,27.783 
		42.938,27.783 42.696,29.082 42.696,29.082 	"/>
	<polygon fill-rule="evenodd" clip-rule="evenodd" fill="#4B5058" points="43.229,26.201 49.405,26.201 49.405,24.893 
		43.471,24.893 43.229,26.201 43.229,26.201 	"/>
	<polygon fill-rule="evenodd" clip-rule="evenodd" fill="#4B5058" points="31.527,24.893 33.271,24.893 33.271,26.201 
		31.607,26.201 31.527,24.893 31.527,24.893 	"/>
	<polygon fill-rule="evenodd" clip-rule="evenodd" fill="#FFFFFF" points="28.271,23.317 28.158,23.309 28.046,23.291 27.94,23.277 
		27.836,23.26 27.739,23.244 27.635,23.229 27.527,23.211 27.415,23.195 27.304,23.18 27.173,23.172 27.028,23.162 26.875,23.153 
		26.705,23.153 26.52,23.162 26.309,23.18 26.076,23.195 25.913,23.22 25.761,23.244 25.623,23.291 25.502,23.34 25.389,23.396 
		25.283,23.463 25.203,23.543 25.131,23.615 25.082,23.704 25.041,23.793 25.025,23.891 25.025,23.987 25.049,24.092 25.082,24.197 
		25.146,24.302 25.227,24.405 25.389,24.561 25.582,24.682 25.809,24.786 26.051,24.875 26.309,24.957 26.576,25.045 26.842,25.143 
		27.102,25.246 27.344,25.383 27.568,25.551 27.771,25.755 27.94,26.005 28.07,26.313 28.15,26.676 28.183,27.113 28.15,27.622 
		28.094,28.002 27.997,28.332 27.867,28.64 27.706,28.905 27.521,29.14 27.311,29.343 27.084,29.52 26.834,29.673 26.576,29.794 
		26.309,29.898 26.035,29.979 25.752,30.044 25.478,30.091 25.211,30.117 24.944,30.133 24.694,30.142 24.348,30.142 24.023,30.133 
		23.741,30.133 23.475,30.126 23.232,30.117 23.014,30.1 22.82,30.086 22.635,30.06 22.466,30.044 22.313,30.011 22.158,29.988 
		22.021,29.946 21.884,29.913 21.754,29.867 21.625,29.816 21.488,29.77 21.851,27.984 21.924,28.002 22.014,28.024 22.126,28.058 
		22.264,28.091 22.408,28.122 22.57,28.155 22.748,28.194 22.941,28.228 23.144,28.259 23.354,28.292 23.572,28.316 23.797,28.339 
		24.031,28.348 24.267,28.356 24.501,28.356 24.734,28.348 24.969,28.299 25.154,28.234 25.301,28.146 25.412,28.033 25.493,27.921 
		25.559,27.79 25.598,27.662 25.631,27.542 25.646,27.308 25.574,27.104 25.438,26.943 25.235,26.806 24.993,26.684 24.71,26.564 
		24.396,26.449 24.08,26.321 23.758,26.176 23.45,26.005 23.168,25.795 22.909,25.547 22.707,25.239 22.563,24.875 22.488,24.441 
		22.498,23.924 22.537,23.607 22.594,23.309 22.675,23.034 22.771,22.775 22.901,22.534 23.047,22.324 23.217,22.123 23.418,21.943 
		23.652,21.791 23.91,21.662 24.201,21.539 24.523,21.45 24.889,21.379 25.283,21.322 25.72,21.291 26.196,21.282 26.495,21.282 
		26.77,21.291 27.021,21.297 27.246,21.305 27.448,21.322 27.635,21.34 27.796,21.354 27.94,21.371 28.078,21.389 28.191,21.41 
		28.295,21.428 28.393,21.441 28.474,21.459 28.547,21.468 28.619,21.483 28.684,21.49 28.271,23.317 28.271,23.317 	"/>
	<polyline fill="none" stroke="#FFFFFF" stroke-width="0.216" stroke-miterlimit="2.6131" points="28.271,23.317 28.271,23.317 
		28.158,23.309 28.046,23.291 27.94,23.277 27.836,23.26 27.739,23.244 27.635,23.229 27.527,23.211 27.415,23.195 27.304,23.18 
		27.173,23.172 27.028,23.162 26.875,23.153 26.705,23.153 26.52,23.162 26.309,23.18 26.076,23.195 26.076,23.195 25.913,23.22 
		25.761,23.244 25.623,23.291 25.502,23.34 25.389,23.396 25.283,23.463 25.203,23.543 25.131,23.615 25.082,23.704 25.041,23.793 
		25.025,23.891 25.025,23.987 25.049,24.092 25.082,24.197 25.146,24.302 25.227,24.405 25.227,24.405 25.389,24.561 25.582,24.682 
		25.809,24.786 26.051,24.875 26.309,24.957 26.576,25.045 26.842,25.143 27.102,25.246 27.344,25.383 27.568,25.551 27.771,25.755 
		27.94,26.005 28.07,26.313 28.15,26.676 28.183,27.113 28.15,27.622 28.15,27.622 28.094,28.002 27.997,28.332 27.867,28.64 
		27.706,28.905 27.521,29.14 27.311,29.343 27.084,29.52 26.834,29.673 26.576,29.794 26.309,29.898 26.035,29.979 25.752,30.044 
		25.478,30.091 25.211,30.117 24.944,30.133 24.694,30.142 24.694,30.142 24.348,30.142 24.023,30.133 23.741,30.133 23.475,30.126 
		23.232,30.117 23.014,30.1 22.82,30.086 22.635,30.06 22.466,30.044 22.313,30.011 22.158,29.988 22.021,29.946 21.884,29.913 
		21.754,29.867 21.625,29.816 21.488,29.77 21.851,27.984 21.851,27.984 21.924,28.002 22.014,28.024 22.126,28.058 22.264,28.091 
		22.408,28.122 22.57,28.155 22.748,28.194 22.941,28.228 23.144,28.259 23.354,28.292 23.572,28.316 23.797,28.339 24.031,28.348 
		24.267,28.356 24.501,28.356 24.734,28.348 24.734,28.348 24.969,28.299 25.154,28.234 25.301,28.146 25.412,28.033 25.493,27.921 
		25.559,27.79 25.598,27.662 25.631,27.542 25.631,27.542 25.646,27.308 25.574,27.104 25.438,26.943 25.235,26.806 24.993,26.684 
		24.71,26.564 24.396,26.449 24.08,26.321 23.758,26.176 23.45,26.005 23.168,25.795 22.909,25.547 22.707,25.239 22.563,24.875 
		22.488,24.441 22.498,23.924 22.498,23.924 22.537,23.607 22.594,23.309 22.675,23.034 22.771,22.775 22.901,22.534 23.047,22.324 
		23.217,22.123 23.418,21.943 23.652,21.791 23.91,21.662 24.201,21.539 24.523,21.45 24.889,21.379 25.283,21.322 25.72,21.291 
		26.196,21.282 26.196,21.282 26.495,21.282 26.77,21.291 27.021,21.297 27.246,21.305 27.448,21.322 27.635,21.34 27.796,21.354 
		27.94,21.371 28.078,21.389 28.191,21.41 28.295,21.428 28.393,21.441 28.474,21.459 28.547,21.468 28.619,21.483 28.684,21.49 
		28.271,23.317 	"/>
	<polygon fill-rule="evenodd" clip-rule="evenodd" fill="#FFFFFF" points="30.186,19.497 32.421,19.497 32.094,21.45 33.438,21.45 
		33.15,23.277 31.729,23.237 30.953,27.741 30.945,27.905 30.985,28.042 31.066,28.146 31.172,28.234 31.317,28.292 31.479,28.339 
		31.656,28.374 31.851,28.387 32.027,28.378 32.187,28.365 32.332,28.339 32.461,28.308 32.566,28.276 32.643,28.25 32.689,28.234 
		32.704,28.228 32.421,29.728 32.368,29.77 32.309,29.803 32.253,29.834 32.195,29.867 32.141,29.892 32.076,29.913 32.003,29.94 
		31.93,29.962 31.851,29.988 31.769,30.004 31.674,30.02 31.576,30.037 31.47,30.051 31.35,30.068 31.22,30.086 31.083,30.1 
		30.468,30.1 30.145,30.077 29.863,30.044 29.604,29.995 29.387,29.94 29.2,29.867 29.048,29.785 28.91,29.688 28.805,29.584 
		28.724,29.471 28.667,29.334 28.627,29.197 28.604,29.042 28.596,28.874 28.596,28.694 28.619,28.511 28.643,28.308 30.186,19.497 
		30.186,19.497 	"/>
	<polyline fill="none" stroke="#FFFFFF" stroke-width="0.216" stroke-miterlimit="2.6131" points="30.186,19.497 32.421,19.497 
		32.094,21.45 33.438,21.45 33.15,23.277 31.729,23.237 30.953,27.741 30.953,27.741 30.945,27.905 30.985,28.042 31.066,28.146 
		31.172,28.234 31.317,28.292 31.479,28.339 31.656,28.374 31.851,28.387 31.851,28.387 32.027,28.378 32.187,28.365 32.332,28.339 
		32.461,28.308 32.566,28.276 32.643,28.25 32.689,28.234 32.704,28.228 32.421,29.728 32.421,29.728 32.368,29.77 32.309,29.803 
		32.253,29.834 32.195,29.867 32.141,29.892 32.076,29.913 32.003,29.94 31.93,29.962 31.851,29.988 31.769,30.004 31.674,30.02 
		31.576,30.037 31.47,30.051 31.35,30.068 31.22,30.086 31.083,30.1 30.468,30.1 30.468,30.1 30.145,30.077 29.863,30.044 
		29.604,29.995 29.387,29.94 29.2,29.867 29.048,29.785 28.91,29.688 28.805,29.584 28.724,29.471 28.667,29.334 28.627,29.197 
		28.604,29.042 28.596,28.874 28.596,28.694 28.619,28.511 28.643,28.308 30.186,19.497 	"/>
	<polygon fill-rule="evenodd" clip-rule="evenodd" fill="#FFFFFF" points="35.227,26.321 35.201,26.459 35.195,26.604 
		35.209,26.757 35.242,26.91 35.297,27.064 35.363,27.21 35.451,27.36 35.549,27.498 35.66,27.64 35.783,27.759 35.912,27.879 
		36.058,27.976 36.201,28.064 36.363,28.14 36.526,28.194 36.688,28.228 36.898,28.259 37.098,28.283 37.31,28.308 37.52,28.323 
		37.73,28.332 37.947,28.332 38.157,28.323 38.376,28.308 38.593,28.276 38.81,28.234 39.035,28.186 39.256,28.113 39.482,28.024 
		39.717,27.927 39.942,27.799 40.177,27.662 39.854,29.648 39.726,29.715 39.595,29.776 39.464,29.825 39.345,29.874 39.224,29.913 
		39.093,29.953 38.964,29.988 38.827,30.011 38.682,30.037 38.52,30.051 38.35,30.068 38.164,30.086 37.956,30.091 37.734,30.091 
		37.486,30.1 37.219,30.1 36.823,30.091 36.421,30.051 36.018,29.995 35.611,29.898 35.217,29.776 34.839,29.624 34.474,29.423 
		34.135,29.188 33.819,28.914 33.545,28.582 33.311,28.21 33.117,27.783 32.98,27.308 32.891,26.764 32.868,26.166 32.908,25.505 
		32.938,25.246 32.99,24.949 33.054,24.633 33.143,24.295 33.264,23.945 33.408,23.6 33.594,23.244 33.819,22.906 34.078,22.583 
		34.393,22.275 34.748,21.999 35.152,21.758 35.619,21.557 36.146,21.41 36.728,21.313 37.381,21.282 37.694,21.291 38.028,21.322 
		38.358,21.379 38.69,21.459 39.013,21.58 39.327,21.725 39.619,21.919 39.885,22.145 40.128,22.419 40.329,22.742 40.49,23.113 
		40.604,23.543 40.668,24.027 40.677,24.578 40.621,25.188 40.5,25.87 40.46,26.361 34.571,26.361 34.943,24.771 38.479,24.771 
		38.495,24.569 38.486,24.375 38.474,24.197 38.438,24.036 38.385,23.883 38.327,23.744 38.245,23.623 38.164,23.512 38.068,23.414 
		37.962,23.332 37.841,23.26 37.721,23.195 37.593,23.146 37.46,23.113 37.325,23.092 37.18,23.074 37.026,23.082 36.881,23.105 
		36.743,23.141 36.606,23.189 36.469,23.251 36.348,23.326 36.226,23.414 36.12,23.512 36.018,23.623 35.92,23.744 35.832,23.875 
		35.757,24.012 35.686,24.158 35.629,24.316 35.58,24.48 35.549,24.648 35.227,26.321 35.227,26.321 	"/>
	<polyline fill="none" stroke="#FFFFFF" stroke-width="0.216" stroke-miterlimit="2.6131" points="35.227,26.321 35.227,26.321 
		35.201,26.459 35.195,26.604 35.209,26.757 35.242,26.91 35.297,27.064 35.363,27.21 35.451,27.36 35.549,27.498 35.66,27.64 
		35.783,27.759 35.912,27.879 36.058,27.976 36.201,28.064 36.363,28.14 36.526,28.194 36.688,28.228 36.688,28.228 36.898,28.259 
		37.098,28.283 37.31,28.308 37.52,28.323 37.73,28.332 37.947,28.332 38.157,28.323 38.376,28.308 38.593,28.276 38.81,28.234 
		39.035,28.186 39.256,28.113 39.482,28.024 39.717,27.927 39.942,27.799 40.177,27.662 39.854,29.648 39.854,29.648 39.726,29.715 
		39.595,29.776 39.464,29.825 39.345,29.874 39.224,29.913 39.093,29.953 38.964,29.988 38.827,30.011 38.682,30.037 38.52,30.051 
		38.35,30.068 38.164,30.086 37.956,30.091 37.734,30.091 37.486,30.1 37.219,30.1 37.219,30.1 36.823,30.091 36.421,30.051 
		36.018,29.995 35.611,29.898 35.217,29.776 34.839,29.624 34.474,29.423 34.135,29.188 33.819,28.914 33.545,28.582 33.311,28.21 
		33.117,27.783 32.98,27.308 32.891,26.764 32.868,26.166 32.908,25.505 32.908,25.505 32.938,25.246 32.99,24.949 33.054,24.633 
		33.143,24.295 33.264,23.945 33.408,23.6 33.594,23.244 33.819,22.906 34.078,22.583 34.393,22.275 34.748,21.999 35.152,21.758 
		35.619,21.557 36.146,21.41 36.728,21.313 37.381,21.282 37.381,21.282 37.694,21.291 38.028,21.322 38.358,21.379 38.69,21.459 
		39.013,21.58 39.327,21.725 39.619,21.919 39.885,22.145 40.128,22.419 40.329,22.742 40.49,23.113 40.604,23.543 40.668,24.027 
		40.677,24.578 40.621,25.188 40.5,25.87 40.46,26.361 34.571,26.361 34.943,24.771 38.479,24.771 38.479,24.771 38.495,24.569 
		38.486,24.375 38.474,24.197 38.438,24.036 38.385,23.883 38.327,23.744 38.245,23.623 38.164,23.512 38.068,23.414 37.962,23.332 
		37.841,23.26 37.721,23.195 37.593,23.146 37.46,23.113 37.325,23.092 37.18,23.074 37.18,23.074 37.026,23.082 36.881,23.105 
		36.743,23.141 36.606,23.189 36.469,23.251 36.348,23.326 36.226,23.414 36.12,23.512 36.018,23.623 35.92,23.744 35.832,23.875 
		35.757,24.012 35.686,24.158 35.629,24.316 35.58,24.48 35.549,24.648 35.227,26.321 	"/>
	<polygon fill-rule="evenodd" clip-rule="evenodd" fill="#FFFFFF" points="54.486,21.938 54.38,21.879 54.276,21.83 54.163,21.773 
		54.042,21.718 53.922,21.67 53.783,21.621 53.648,21.572 53.502,21.525 53.347,21.483 53.192,21.45 53.024,21.42 52.856,21.395 
		52.67,21.379 52.484,21.361 52.29,21.361 52.086,21.361 51.887,21.361 51.675,21.379 51.458,21.401 51.232,21.441 51.007,21.508 
		50.781,21.596 50.554,21.711 50.325,21.855 50.108,22.031 49.9,22.242 49.697,22.501 49.503,22.799 49.325,23.153 49.157,23.559 
		49.003,24.012 48.874,24.529 48.825,24.816 48.793,25.1 48.777,25.383 48.786,25.658 48.811,25.932 48.865,26.193 48.938,26.434 
		49.027,26.676 49.148,26.896 49.295,27.104 49.463,27.29 49.657,27.458 49.874,27.604 50.126,27.726 50.4,27.83 50.706,27.905 
		50.813,27.927 50.934,27.951 51.077,27.967 51.241,27.984 51.418,28.002 51.604,28.002 51.806,28.002 52.007,27.984 52.217,27.96 
		52.427,27.921 52.631,27.863 52.829,27.799 53.033,27.71 53.219,27.604 53.387,27.476 53.551,27.33 53.188,29.489 53.14,29.526 
		53.091,29.575 53.024,29.633 52.953,29.679 52.865,29.745 52.75,29.803 52.621,29.858 52.476,29.907 52.29,29.962 52.08,30.004 
		51.839,30.037 51.556,30.068 51.241,30.086 50.876,30.091 50.465,30.086 50.012,30.06 49.64,30.02 49.269,29.94 48.896,29.816 
		48.524,29.657 48.171,29.462 47.832,29.219 47.51,28.938 47.211,28.613 46.943,28.25 46.718,27.848 46.525,27.396 46.379,26.9 
		46.282,26.361 46.251,25.785 46.264,25.158 46.354,24.487 46.419,24.158 46.492,23.835 46.574,23.519 46.653,23.22 46.742,22.937 
		46.848,22.653 46.952,22.389 47.064,22.139 47.185,21.889 47.309,21.654 47.445,21.428 47.592,21.216 47.735,21.017 47.896,20.822 
		48.058,20.645 48.229,20.473 48.414,20.313 48.6,20.158 48.793,20.021 48.994,19.893 49.213,19.771 49.432,19.668 49.657,19.57 
		49.892,19.481 50.145,19.399 50.392,19.336 50.65,19.277 50.925,19.229 51.199,19.189 51.489,19.158 51.781,19.141 52.086,19.132 
		52.348,19.141 52.598,19.158 52.838,19.181 53.082,19.214 53.308,19.247 53.524,19.296 53.736,19.336 53.931,19.385 54.117,19.433 
		54.276,19.481 54.431,19.53 54.56,19.578 54.675,19.619 54.768,19.649 54.843,19.683 54.892,19.698 54.486,21.938 54.486,21.938 	
		"/>
	<polyline fill="none" stroke="#FFFFFF" stroke-width="0.216" stroke-miterlimit="2.6131" points="54.486,21.938 54.486,21.938 
		54.38,21.879 54.276,21.83 54.163,21.773 54.042,21.718 53.922,21.67 53.783,21.621 53.648,21.572 53.502,21.525 53.347,21.483 
		53.192,21.45 53.024,21.42 52.856,21.395 52.67,21.379 52.484,21.361 52.29,21.361 52.086,21.361 52.086,21.361 51.887,21.361 
		51.675,21.379 51.458,21.401 51.232,21.441 51.007,21.508 50.781,21.596 50.554,21.711 50.325,21.855 50.108,22.031 49.9,22.242 
		49.697,22.501 49.503,22.799 49.325,23.153 49.157,23.559 49.003,24.012 48.874,24.529 48.874,24.529 48.825,24.816 48.793,25.1 
		48.777,25.383 48.786,25.658 48.811,25.932 48.865,26.193 48.938,26.434 49.027,26.676 49.148,26.896 49.295,27.104 49.463,27.29 
		49.657,27.458 49.874,27.604 50.126,27.726 50.4,27.83 50.706,27.905 50.706,27.905 50.813,27.927 50.934,27.951 51.077,27.967 
		51.241,27.984 51.418,28.002 51.604,28.002 51.806,28.002 52.007,27.984 52.217,27.96 52.427,27.921 52.631,27.863 52.829,27.799 
		53.033,27.71 53.219,27.604 53.387,27.476 53.551,27.33 53.188,29.489 53.188,29.489 53.14,29.526 53.091,29.575 53.024,29.633 
		52.953,29.679 52.865,29.745 52.75,29.803 52.621,29.858 52.476,29.907 52.29,29.962 52.08,30.004 51.839,30.037 51.556,30.068 
		51.241,30.086 50.876,30.091 50.465,30.086 50.012,30.06 50.012,30.06 49.64,30.02 49.269,29.94 48.896,29.816 48.524,29.657 
		48.171,29.462 47.832,29.219 47.51,28.938 47.211,28.613 46.943,28.25 46.718,27.848 46.525,27.396 46.379,26.9 46.282,26.361 
		46.251,25.785 46.264,25.158 46.354,24.487 46.354,24.487 46.419,24.158 46.492,23.835 46.574,23.519 46.653,23.22 46.742,22.937 
		46.848,22.653 46.952,22.389 47.064,22.139 47.185,21.889 47.309,21.654 47.445,21.428 47.592,21.216 47.735,21.017 47.896,20.822 
		48.058,20.645 48.229,20.473 48.414,20.313 48.6,20.158 48.793,20.021 48.994,19.893 49.213,19.771 49.432,19.668 49.657,19.57 
		49.892,19.481 50.145,19.399 50.392,19.336 50.65,19.277 50.925,19.229 51.199,19.189 51.489,19.158 51.781,19.141 52.086,19.132 
		52.086,19.132 52.348,19.141 52.598,19.158 52.838,19.181 53.082,19.214 53.308,19.247 53.524,19.296 53.736,19.336 53.931,19.385 
		54.117,19.433 54.276,19.481 54.431,19.53 54.56,19.578 54.675,19.619 54.768,19.649 54.843,19.683 54.892,19.698 54.486,21.938 	
		"/>
	<polygon fill-rule="evenodd" clip-rule="evenodd" fill="#FFFFFF" points="74.368,30.1 72.132,30.1 72.296,29.203 72.296,29.124 
		72.165,29.285 72.028,29.432 71.891,29.56 71.745,29.673 71.599,29.776 71.453,29.867 71.309,29.94 71.156,30.011 71.002,30.068 
		70.849,30.108 70.694,30.148 70.535,30.175 70.373,30.196 70.219,30.214 70.057,30.224 69.896,30.224 69.476,30.188 69.088,30.1 
		68.732,29.962 68.409,29.776 68.119,29.542 67.86,29.27 67.635,28.971 67.44,28.631 67.278,28.268 67.15,27.888 67.062,27.491 
		66.995,27.08 66.971,26.668 66.98,26.248 67.02,25.837 67.093,25.423 67.215,24.949 67.358,24.496 67.528,24.082 67.732,23.697 
		67.94,23.332 68.184,23.01 68.434,22.72 68.699,22.452 68.981,22.218 69.28,22.017 69.588,21.84 69.896,21.702 70.219,21.588 
		70.541,21.517 70.864,21.468 71.196,21.45 71.431,21.459 71.656,21.483 71.866,21.525 72.062,21.58 72.245,21.645 72.406,21.718 
		72.57,21.807 72.714,21.895 72.842,21.992 72.966,22.096 73.067,22.202 73.167,22.309 73.247,22.412 73.319,22.517 73.384,22.613 
		73.435,22.711 73.435,22.711 73.999,19.539 76.195,19.539 74.368,30.1 74.368,30.1 	"/>
	<polyline fill="none" stroke="#FFFFFF" stroke-width="0.216" stroke-miterlimit="2.6131" points="74.368,30.1 72.132,30.1 
		72.296,29.203 72.296,29.124 72.296,29.124 72.165,29.285 72.028,29.432 71.891,29.56 71.745,29.673 71.599,29.776 71.453,29.867 
		71.309,29.94 71.156,30.011 71.002,30.068 70.849,30.108 70.694,30.148 70.535,30.175 70.373,30.196 70.219,30.214 70.057,30.224 
		69.896,30.224 69.896,30.224 69.476,30.188 69.088,30.1 68.732,29.962 68.409,29.776 68.119,29.542 67.86,29.27 67.635,28.971 
		67.44,28.631 67.278,28.268 67.15,27.888 67.062,27.491 66.995,27.08 66.971,26.668 66.98,26.248 67.02,25.837 67.093,25.423 
		67.093,25.423 67.215,24.949 67.358,24.496 67.528,24.082 67.732,23.697 67.94,23.332 68.184,23.01 68.434,22.72 68.699,22.452 
		68.981,22.218 69.28,22.017 69.588,21.84 69.896,21.702 70.219,21.588 70.541,21.517 70.864,21.468 71.196,21.45 71.196,21.45 
		71.431,21.459 71.656,21.483 71.866,21.525 72.062,21.58 72.245,21.645 72.406,21.718 72.57,21.807 72.714,21.895 72.842,21.992 
		72.966,22.096 73.067,22.202 73.167,22.309 73.247,22.412 73.319,22.517 73.384,22.613 73.435,22.711 73.435,22.711 73.999,19.539 
		76.195,19.539 74.368,30.1 	"/>
	<polygon fill-rule="evenodd" clip-rule="evenodd" fill="#4B5058" points="70.712,28.146 70.938,28.131 71.147,28.082 
		71.342,28.024 71.525,27.936 71.696,27.839 71.859,27.719 72.013,27.582 72.149,27.436 72.269,27.272 72.384,27.096 72.488,26.91 
		72.576,26.717 72.658,26.516 72.723,26.303 72.777,26.086 72.819,25.87 72.859,25.643 72.884,25.408 72.884,25.188 72.875,24.965 
		72.851,24.755 72.819,24.551 72.763,24.359 72.698,24.174 72.618,24.012 72.521,23.857 72.415,23.729 72.296,23.615 72.156,23.519 
		72.013,23.454 71.859,23.414 71.688,23.396 71.471,23.414 71.27,23.445 71.083,23.512 70.897,23.592 70.736,23.697 70.574,23.826 
		70.438,23.963 70.3,24.115 70.179,24.295 70.065,24.48 69.96,24.674 69.871,24.883 69.792,25.1 69.726,25.321 69.661,25.551 
		69.614,25.785 69.572,26.145 69.588,26.529 69.646,26.928 69.749,27.308 69.911,27.64 70.121,27.905 70.387,28.082 70.712,28.146 
		70.712,28.146 	"/>
	<polygon fill-rule="evenodd" clip-rule="evenodd" fill="#FFFFFF" points="21.116,28.308 20.793,30.1 18.758,30.1 18.814,29.77 
		18.855,29.471 18.888,29.245 18.92,29.124 18.807,29.254 18.678,29.383 18.523,29.502 18.354,29.617 18.161,29.728 17.959,29.825 
		17.748,29.922 17.531,30.004 17.297,30.077 17.062,30.133 16.828,30.182 16.586,30.214 16.352,30.229 16.117,30.238 15.892,30.214 
		15.674,30.182 15.391,30.108 15.132,30.028 14.906,29.922 14.705,29.803 14.527,29.673 14.365,29.526 14.236,29.374 14.122,29.212 
		14.025,29.042 13.945,28.865 13.881,28.688 13.832,28.511 13.8,28.323 13.775,28.14 13.76,27.96 13.76,27.783 13.783,27.467 
		13.832,27.171 13.913,26.887 14.018,26.611 14.147,26.352 14.292,26.117 14.461,25.893 14.656,25.693 14.857,25.505 15.083,25.334 
		15.317,25.184 15.561,25.051 15.818,24.941 16.085,24.853 16.359,24.779 16.643,24.73 16.658,24.73 16.699,24.722 16.756,24.715 
		16.844,24.707 16.941,24.688 17.055,24.682 17.176,24.666 17.313,24.648 17.449,24.633 17.587,24.617 17.732,24.609 17.862,24.594 
		17.99,24.584 18.112,24.578 18.225,24.569 18.314,24.569 18.5,24.569 18.693,24.578 18.871,24.584 19.049,24.584 19.194,24.594 
		19.309,24.6 19.389,24.609 19.412,24.609 19.429,24.551 19.477,24.405 19.518,24.237 19.533,24.082 19.502,23.906 19.429,23.744 
		19.331,23.6 19.203,23.477 19.049,23.375 18.879,23.299 18.686,23.251 18.475,23.237 18.25,23.229 18.008,23.22 17.758,23.22 
		17.498,23.229 17.232,23.244 16.973,23.269 16.715,23.291 16.465,23.326 16.223,23.357 15.988,23.396 15.779,23.437 15.584,23.477 
		15.407,23.525 15.262,23.574 15.148,23.631 15.06,23.68 15.633,21.733 15.811,21.662 15.988,21.596 16.183,21.539 16.376,21.499 
		16.569,21.459 16.779,21.428 16.99,21.395 17.207,21.379 17.434,21.361 17.668,21.354 17.91,21.346 18.161,21.346 18.419,21.346 
		18.686,21.346 18.969,21.354 19.25,21.361 19.477,21.379 19.72,21.42 19.969,21.477 20.229,21.547 20.479,21.645 20.721,21.758 
		20.963,21.895 21.189,22.047 21.391,22.227 21.568,22.419 21.73,22.639 21.851,22.879 21.932,23.141 21.98,23.414 21.98,23.72 
		21.932,24.043 21.116,28.308 21.116,28.308 	"/>
	<polyline fill="none" stroke="#FFFFFF" stroke-width="0.216" stroke-miterlimit="2.6131" points="21.116,28.308 20.793,30.1 
		18.758,30.1 18.758,30.1 18.814,29.77 18.855,29.471 18.888,29.245 18.92,29.124 18.92,29.124 18.807,29.254 18.678,29.383 
		18.523,29.502 18.354,29.617 18.161,29.728 17.959,29.825 17.748,29.922 17.531,30.004 17.297,30.077 17.062,30.133 16.828,30.182 
		16.586,30.214 16.352,30.229 16.117,30.238 15.892,30.214 15.674,30.182 15.674,30.182 15.391,30.108 15.132,30.028 14.906,29.922 
		14.705,29.803 14.527,29.673 14.365,29.526 14.236,29.374 14.122,29.212 14.025,29.042 13.945,28.865 13.881,28.688 13.832,28.511 
		13.8,28.323 13.775,28.14 13.76,27.96 13.76,27.783 13.76,27.783 13.783,27.467 13.832,27.171 13.913,26.887 14.018,26.611 
		14.147,26.352 14.292,26.117 14.461,25.893 14.656,25.693 14.857,25.505 15.083,25.334 15.317,25.184 15.561,25.051 15.818,24.941 
		16.085,24.853 16.359,24.779 16.643,24.73 16.643,24.73 16.658,24.73 16.699,24.722 16.756,24.715 16.844,24.707 16.941,24.688 
		17.055,24.682 17.176,24.666 17.313,24.648 17.449,24.633 17.587,24.617 17.732,24.609 17.862,24.594 17.99,24.584 18.112,24.578 
		18.225,24.569 18.314,24.569 18.314,24.569 18.5,24.569 18.693,24.578 18.871,24.584 19.049,24.584 19.194,24.594 19.309,24.6 
		19.389,24.609 19.412,24.609 19.412,24.609 19.429,24.551 19.477,24.405 19.518,24.237 19.533,24.082 19.533,24.082 19.502,23.906 
		19.429,23.744 19.331,23.6 19.203,23.477 19.049,23.375 18.879,23.299 18.686,23.251 18.475,23.237 18.475,23.237 18.25,23.229 
		18.008,23.22 17.758,23.22 17.498,23.229 17.232,23.244 16.973,23.269 16.715,23.291 16.465,23.326 16.223,23.357 15.988,23.396 
		15.779,23.437 15.584,23.477 15.407,23.525 15.262,23.574 15.148,23.631 15.06,23.68 15.633,21.733 15.633,21.733 15.811,21.662 
		15.988,21.596 16.183,21.539 16.376,21.499 16.569,21.459 16.779,21.428 16.99,21.395 17.207,21.379 17.434,21.361 17.668,21.354 
		17.91,21.346 18.161,21.346 18.419,21.346 18.686,21.346 18.969,21.354 19.25,21.361 19.25,21.361 19.477,21.379 19.72,21.42 
		19.969,21.477 20.229,21.547 20.479,21.645 20.721,21.758 20.963,21.895 21.189,22.047 21.391,22.227 21.568,22.419 21.73,22.639 
		21.851,22.879 21.932,23.141 21.98,23.414 21.98,23.72 21.932,24.043 21.116,28.308 	"/>
	<polygon fill-rule="evenodd" clip-rule="evenodd" fill="#4B5058" points="19.171,26.201 19.162,26.157 19.13,26.117 19.082,26.096 
		19,26.078 18.911,26.064 18.807,26.056 18.686,26.056 18.564,26.056 18.436,26.064 18.299,26.078 18.169,26.096 18.039,26.111 
		17.919,26.127 17.805,26.152 17.709,26.176 17.619,26.201 17.563,26.215 17.498,26.239 17.41,26.272 17.32,26.313 17.215,26.361 
		17.11,26.418 16.998,26.474 16.893,26.538 16.779,26.619 16.675,26.701 16.577,26.799 16.488,26.896 16.408,26.998 16.352,27.113 
		16.303,27.241 16.279,27.37 16.271,27.644 16.311,27.863 16.392,28.024 16.496,28.146 16.618,28.228 16.756,28.276 16.885,28.299 
		17.014,28.308 17.256,28.299 17.475,28.276 17.685,28.241 17.869,28.194 18.031,28.14 18.184,28.064 18.321,27.993 18.443,27.905 
		18.549,27.823 18.646,27.726 18.727,27.64 18.791,27.542 18.847,27.445 18.896,27.348 18.937,27.259 18.959,27.171 19.025,26.936 
		19.082,26.668 19.13,26.41 19.171,26.201 19.171,26.201 	"/>
	<polygon fill-rule="evenodd" clip-rule="evenodd" fill="#FFFFFF" points="4.125,30.1 1.928,30.1 3.761,19.497 7.581,19.497 
		7.945,25.785 10.586,19.497 14.575,19.497 12.701,30.1 10.506,30.1 11.893,22.178 11.805,22.178 8.518,30.1 6.039,30.1 
		6.022,29.77 5.966,28.89 5.893,27.64 5.813,26.201 5.731,24.755 5.658,23.485 5.602,22.564 5.587,22.178 5.563,22.178 
		5.514,22.178 5.465,22.178 5.465,22.178 4.125,30.1 4.125,30.1 	"/>
	<polyline fill="none" stroke="#FFFFFF" stroke-width="0.216" stroke-miterlimit="2.6131" points="4.125,30.1 1.928,30.1 
		3.761,19.497 7.581,19.497 7.945,25.785 10.586,19.497 14.575,19.497 12.701,30.1 10.506,30.1 11.893,22.178 11.805,22.178 
		8.518,30.1 6.039,30.1 6.039,30.1 6.022,29.77 5.966,28.89 5.893,27.64 5.813,26.201 5.731,24.755 5.658,23.485 5.602,22.564 
		5.587,22.178 5.587,22.178 5.563,22.178 5.514,22.178 5.465,22.178 5.465,22.178 4.125,30.1 	"/>
	<polygon fill-rule="evenodd" clip-rule="evenodd" fill="#FFFFFF" points="61.197,28.308 60.866,30.1 58.84,30.1 58.855,29.77 
		58.864,29.479 58.864,29.261 58.88,29.164 58.775,29.285 58.654,29.404 58.508,29.52 58.347,29.633 58.179,29.736 57.983,29.834 
		57.782,29.932 57.581,30.011 57.359,30.077 57.134,30.142 56.908,30.182 56.683,30.214 56.448,30.229 56.223,30.238 56.006,30.214 
		55.787,30.182 55.497,30.108 55.236,30.028 55.011,29.922 54.803,29.803 54.623,29.673 54.471,29.526 54.34,29.374 54.228,29.212 
		54.13,29.042 54.06,28.865 53.993,28.688 53.953,28.511 53.922,28.323 53.896,28.14 53.883,27.96 53.883,27.783 53.896,27.467 
		53.944,27.171 54.018,26.887 54.124,26.611 54.245,26.352 54.397,26.117 54.568,25.893 54.754,25.693 54.962,25.505 55.184,25.334 
		55.415,25.184 55.665,25.051 55.918,24.941 56.183,24.853 56.448,24.779 56.723,24.73 56.74,24.73 56.78,24.722 56.838,24.715 
		56.917,24.707 57.023,24.688 57.134,24.682 57.258,24.666 57.387,24.648 57.523,24.633 57.67,24.617 57.807,24.609 57.943,24.594 
		58.072,24.584 58.185,24.578 58.298,24.569 58.386,24.569 58.581,24.569 58.775,24.578 58.961,24.584 59.139,24.584 59.291,24.594 
		59.422,24.6 59.492,24.609 59.525,24.609 59.543,24.551 59.565,24.405 59.592,24.237 59.607,24.082 59.574,23.906 59.51,23.744 
		59.403,23.6 59.284,23.477 59.139,23.375 58.968,23.299 58.791,23.251 58.597,23.237 58.371,23.229 58.13,23.22 57.877,23.22 
		57.621,23.229 57.354,23.244 57.095,23.269 56.838,23.291 56.586,23.326 56.342,23.357 56.107,23.396 55.899,23.437 55.705,23.477 
		55.528,23.525 55.382,23.574 55.271,23.631 55.184,23.68 55.745,21.733 55.924,21.662 56.107,21.596 56.296,21.539 56.488,21.499 
		56.691,21.459 56.893,21.428 57.104,21.395 57.32,21.379 57.548,21.361 57.782,21.354 58.017,21.346 58.267,21.346 58.517,21.346 
		58.775,21.346 59.05,21.354 59.324,21.361 59.55,21.379 59.793,21.42 60.043,21.477 60.302,21.547 60.552,21.645 60.802,21.758 
		61.045,21.895 61.271,22.047 61.472,22.227 61.658,22.419 61.819,22.639 61.941,22.879 62.029,23.141 62.085,23.414 62.085,23.72 
		62.045,24.043 61.197,28.308 61.197,28.308 	"/>
	<polygon fill-rule="evenodd" clip-rule="evenodd" fill="#FFFFFF" points="60.866,30.157 60.914,30.108 61.246,28.316 
		61.149,28.299 60.817,30.091 60.866,30.044 60.866,30.157 60.905,30.148 60.914,30.108 60.866,30.157 60.866,30.157 	"/>
	<polygon fill-rule="evenodd" clip-rule="evenodd" fill="#FFFFFF" points="58.791,30.1 58.84,30.157 60.866,30.157 60.866,30.044 
		58.84,30.044 58.889,30.1 58.791,30.1 58.782,30.157 58.84,30.157 58.791,30.1 58.791,30.1 	"/>
	<polygon fill-rule="evenodd" clip-rule="evenodd" fill="#FFFFFF" points="58.922,29.197 58.849,29.131 58.815,29.261 
		58.807,29.479 58.807,29.77 58.791,30.1 58.889,30.1 58.903,29.77 58.922,29.479 58.913,29.261 58.913,29.197 58.84,29.131 
		58.922,29.197 58.922,29.197 	"/>
	<polygon fill-rule="evenodd" clip-rule="evenodd" fill="#FFFFFF" points="55.78,30.229 55.78,30.229 56.006,30.263 56.223,30.285 
		56.448,30.278 56.683,30.263 56.917,30.229 57.143,30.188 57.368,30.126 57.597,30.06 57.798,29.979 58.008,29.883 58.202,29.785 
		58.371,29.673 58.541,29.56 58.688,29.444 58.815,29.316 58.922,29.197 58.84,29.131 58.733,29.254 58.621,29.365 58.477,29.479 
		58.322,29.591 58.151,29.688 57.959,29.785 57.765,29.883 57.563,29.962 57.354,30.028 57.125,30.091 56.902,30.133 56.683,30.166 
		56.448,30.182 56.223,30.188 56.006,30.166 55.796,30.133 55.796,30.133 55.78,30.229 55.78,30.229 	"/>
	<polygon fill-rule="evenodd" clip-rule="evenodd" fill="#FFFFFF" points="53.825,27.783 53.825,27.783 53.834,27.96 53.85,28.14 
		53.874,28.332 53.904,28.518 53.944,28.694 54.011,28.883 54.084,29.066 54.188,29.236 54.303,29.404 54.431,29.56 54.593,29.715 
		54.776,29.843 54.988,29.971 55.223,30.077 55.488,30.157 55.78,30.229 55.796,30.133 55.504,30.06 55.254,29.979 55.037,29.874 
		54.827,29.761 54.656,29.633 54.511,29.495 54.38,29.343 54.268,29.188 54.179,29.02 54.108,28.848 54.042,28.679 54.002,28.502 
		53.971,28.316 53.944,28.14 53.931,27.96 53.936,27.783 53.936,27.783 53.825,27.783 53.825,27.783 	"/>
	<polygon fill-rule="evenodd" clip-rule="evenodd" fill="#FFFFFF" points="56.723,24.682 56.723,24.682 56.441,24.73 56.168,24.804 
		55.899,24.893 55.644,25.005 55.391,25.133 55.147,25.295 54.931,25.465 54.721,25.658 54.526,25.861 54.358,26.086 54.196,26.33 
		54.075,26.596 53.971,26.869 53.896,27.162 53.85,27.467 53.825,27.783 53.936,27.783 53.944,27.467 53.993,27.177 54.068,26.9 
		54.17,26.627 54.294,26.377 54.439,26.152 54.608,25.923 54.785,25.725 54.995,25.547 55.214,25.377 55.439,25.23 55.691,25.1 
		55.933,24.989 56.198,24.898 56.457,24.826 56.723,24.779 56.723,24.779 56.723,24.682 56.723,24.682 	"/>
	<polygon fill-rule="evenodd" clip-rule="evenodd" fill="#FFFFFF" points="58.386,24.512 58.386,24.512 58.298,24.512 
		58.185,24.529 58.072,24.536 57.943,24.545 57.807,24.561 57.67,24.569 57.523,24.584 57.387,24.6 57.258,24.617 57.134,24.633 
		57.023,24.641 56.917,24.658 56.838,24.666 56.771,24.674 56.74,24.682 56.723,24.682 56.723,24.779 56.74,24.779 56.789,24.771 
		56.838,24.764 56.917,24.755 57.023,24.737 57.134,24.73 57.258,24.715 57.387,24.697 57.523,24.682 57.67,24.666 57.807,24.658 
		57.943,24.641 58.072,24.633 58.185,24.627 58.298,24.627 58.386,24.627 58.386,24.627 58.386,24.512 58.386,24.512 	"/>
	<polygon fill-rule="evenodd" clip-rule="evenodd" fill="#FFFFFF" points="59.477,24.6 59.525,24.561 59.492,24.561 59.422,24.551 
		59.291,24.545 59.139,24.529 58.961,24.529 58.775,24.529 58.581,24.512 58.386,24.512 58.386,24.627 58.581,24.627 58.775,24.627 
		58.961,24.641 59.139,24.641 59.291,24.641 59.422,24.648 59.492,24.658 59.525,24.658 59.574,24.617 59.525,24.658 59.565,24.666 
		59.574,24.617 59.477,24.6 59.477,24.6 	"/>
	<polygon fill-rule="evenodd" clip-rule="evenodd" fill="#FFFFFF" points="59.559,24.082 59.55,24.082 59.543,24.237 59.519,24.398 
		59.492,24.545 59.477,24.6 59.574,24.617 59.592,24.561 59.616,24.414 59.639,24.237 59.662,24.082 59.656,24.082 59.559,24.082 
		59.559,24.082 	"/>
	<polygon fill-rule="evenodd" clip-rule="evenodd" fill="#FFFFFF" points="58.597,23.284 58.597,23.291 58.782,23.299 
		58.952,23.348 59.114,23.421 59.251,23.519 59.364,23.631 59.461,23.769 59.525,23.914 59.559,24.082 59.656,24.082 59.623,23.896 
		59.559,23.72 59.445,23.566 59.317,23.437 59.162,23.326 58.985,23.251 58.8,23.202 58.597,23.18 58.597,23.189 58.597,23.284 
		58.597,23.284 	"/>
	<polygon fill-rule="evenodd" clip-rule="evenodd" fill="#FFFFFF" points="55.132,23.671 55.214,23.72 55.294,23.68 55.399,23.623 
		55.537,23.574 55.714,23.525 55.908,23.485 56.116,23.445 56.352,23.406 56.586,23.375 56.838,23.34 57.095,23.317 57.354,23.291 
		57.621,23.277 57.877,23.277 58.13,23.277 58.371,23.277 58.597,23.284 58.597,23.189 58.371,23.18 58.13,23.162 57.877,23.162 
		57.621,23.18 57.354,23.195 57.095,23.22 56.838,23.244 56.586,23.277 56.336,23.309 56.102,23.348 55.891,23.389 55.698,23.43 
		55.52,23.477 55.364,23.525 55.245,23.582 55.147,23.641 55.229,23.689 55.132,23.671 55.132,23.671 	"/>
	<polygon fill-rule="evenodd" clip-rule="evenodd" fill="#FFFFFF" points="55.731,21.685 55.698,21.725 55.132,23.671 
		55.229,23.689 55.796,21.742 55.763,21.782 55.731,21.685 55.705,21.693 55.698,21.725 55.731,21.685 55.731,21.685 	"/>
	<polygon fill-rule="evenodd" clip-rule="evenodd" fill="#FFFFFF" points="59.324,21.313 59.324,21.313 59.05,21.297 58.775,21.291 
		58.517,21.291 58.267,21.291 58.017,21.291 57.782,21.305 57.548,21.313 57.32,21.33 57.104,21.346 56.887,21.379 56.683,21.41 
		56.481,21.45 56.289,21.49 56.095,21.547 55.908,21.613 55.731,21.685 55.763,21.782 55.939,21.711 56.125,21.645 56.303,21.588 
		56.497,21.547 56.7,21.508 56.902,21.477 57.104,21.441 57.32,21.428 57.548,21.41 57.782,21.401 58.017,21.401 58.267,21.401 
		58.517,21.401 58.775,21.401 59.05,21.41 59.324,21.41 59.324,21.41 59.324,21.313 59.324,21.313 	"/>
	<polygon fill-rule="evenodd" clip-rule="evenodd" fill="#FFFFFF" points="62.094,24.052 62.094,24.052 62.136,23.72 62.136,23.414 
		62.078,23.131 61.989,22.865 61.859,22.613 61.697,22.389 61.503,22.185 61.302,22.008 61.067,21.855 60.826,21.711 60.567,21.596 
		60.317,21.499 60.052,21.428 59.8,21.371 59.55,21.33 59.324,21.313 59.324,21.41 59.55,21.428 59.784,21.468 60.034,21.525 
		60.286,21.596 60.536,21.693 60.777,21.807 61.021,21.938 61.237,22.09 61.441,22.267 61.618,22.452 61.779,22.662 61.893,22.896 
		61.98,23.146 62.038,23.414 62.038,23.72 61.996,24.036 61.996,24.036 62.094,24.052 62.094,24.052 	"/>
	<polygon fill-rule="evenodd" clip-rule="evenodd" fill="#FFFFFF" points="61.246,28.316 61.246,28.316 62.094,24.052 
		61.996,24.036 61.149,28.299 61.149,28.299 61.246,28.316 61.246,28.316 	"/>
	<polygon fill-rule="evenodd" clip-rule="evenodd" fill="#4B5058" points="59.244,26.201 59.227,26.152 59.195,26.111 
		59.139,26.086 59.057,26.064 58.968,26.056 58.864,26.047 58.742,26.047 58.621,26.056 58.492,26.071 58.362,26.086 58.233,26.102 
		58.112,26.117 57.99,26.145 57.887,26.157 57.782,26.184 57.7,26.201 57.643,26.209 57.581,26.232 57.499,26.255 57.408,26.29 
		57.307,26.336 57.207,26.385 57.095,26.443 56.99,26.516 56.887,26.586 56.78,26.676 56.691,26.764 56.604,26.869 56.53,26.982 
		56.473,27.104 56.424,27.232 56.399,27.37 56.391,27.644 56.433,27.863 56.497,28.024 56.595,28.146 56.716,28.228 56.851,28.276 
		56.99,28.299 57.125,28.308 57.368,28.299 57.597,28.276 57.807,28.234 57.99,28.18 58.169,28.113 58.322,28.042 58.468,27.96 
		58.597,27.863 58.711,27.774 58.807,27.671 58.895,27.573 58.968,27.467 59.023,27.37 59.065,27.272 59.097,27.177 59.123,27.089 
		59.156,26.861 59.195,26.627 59.227,26.4 59.244,26.201 59.244,26.201 	"/>
	<polygon fill-rule="evenodd" clip-rule="evenodd" fill="#FFFFFF" points="75.881,28.993 75.895,28.808 75.961,28.591 
		76.074,28.396 76.211,28.228 76.381,28.091 76.573,27.993 76.784,27.927 77.01,27.905 77.235,27.927 77.447,27.993 77.64,28.091 
		77.811,28.228 77.947,28.396 78.061,28.591 78.124,28.808 78.14,28.993 77.898,28.993 77.892,28.848 77.844,28.67 77.762,28.511 
		77.657,28.374 77.527,28.259 77.374,28.18 77.195,28.122 77.01,28.104 76.826,28.122 76.646,28.18 76.494,28.259 76.363,28.374 
		76.26,28.511 76.178,28.67 76.129,28.848 76.116,28.993 75.881,28.993 75.881,28.993 	"/>
	<polygon fill-rule="evenodd" clip-rule="evenodd" fill="#FFFFFF" points="76.606,28.993 76.606,28.511 77.052,28.511 
		77.146,28.518 77.235,28.533 77.302,28.558 77.359,28.591 77.398,28.64 77.43,28.688 77.447,28.745 77.454,28.801 77.447,28.874 
		77.43,28.929 77.405,28.98 77.39,28.993 77.052,28.993 77.082,28.984 77.14,28.98 77.188,28.962 77.229,28.944 77.262,28.923 
		77.277,28.898 77.295,28.856 77.295,28.801 77.286,28.759 77.269,28.728 77.244,28.71 77.222,28.694 77.18,28.688 77.14,28.679 
		77.101,28.679 77.052,28.679 76.809,28.679 76.809,28.993 76.606,28.993 76.606,28.993 	"/>
	<polygon fill-rule="evenodd" clip-rule="evenodd" fill="#FFFFFF" points="75.881,28.993 75.872,29.042 75.895,29.276 
		75.961,29.495 76.074,29.688 76.211,29.852 76.381,29.988 76.573,30.091 76.784,30.157 77.01,30.182 77.235,30.157 77.447,30.091 
		77.64,29.988 77.811,29.852 77.947,29.688 78.061,29.495 78.124,29.276 78.148,29.042 78.14,28.993 77.898,28.993 77.905,29.042 
		77.892,29.236 77.844,29.414 77.762,29.568 77.657,29.706 77.527,29.816 77.374,29.907 77.195,29.962 77.01,29.979 76.826,29.962 
		76.646,29.907 76.494,29.816 76.363,29.706 76.26,29.568 76.178,29.414 76.129,29.236 76.116,29.042 76.116,28.993 75.881,28.993 
		75.881,28.993 	"/>
	<polygon fill-rule="evenodd" clip-rule="evenodd" fill="#FFFFFF" points="76.606,28.993 76.606,29.489 76.809,29.489 
		76.809,29.082 77.01,29.082 77.253,29.489 77.414,29.489 77.173,29.082 77.229,29.082 77.286,29.066 77.335,29.051 77.374,29.02 
		77.39,28.993 77.052,28.993 77.01,29.002 76.809,29.002 76.809,28.993 76.606,28.993 76.606,28.993 	"/>
	<polygon fill-rule="evenodd" clip-rule="evenodd" fill="#FFFFFF" points="61.804,30.1 64.08,30.1 64.08,30.1 64.898,25.505 
		64.93,25.328 64.979,25.148 65.026,24.972 65.091,24.795 65.173,24.617 65.268,24.447 65.374,24.286 65.502,24.131 65.648,23.994 
		65.81,23.865 65.996,23.744 66.206,23.648 66.44,23.566 66.697,23.503 66.98,23.454 67.296,23.437 67.409,23.437 67.474,23.437 
		67.498,23.437 67.498,23.437 67.86,21.361 67.635,21.379 67.418,21.401 67.215,21.441 67.02,21.499 66.843,21.565 66.675,21.645 
		66.514,21.733 66.358,21.83 66.213,21.943 66.077,22.057 65.944,22.185 65.816,22.314 65.697,22.452 65.575,22.605 65.454,22.751 
		65.341,22.914 65.582,21.45 63.314,21.45 61.804,30.1 61.804,30.1 61.804,30.1 	"/>
	<polyline fill="none" stroke="#FFFFFF" stroke-width="0.216" stroke-miterlimit="2.6131" points="61.804,30.1 64.08,30.1 
		64.08,30.1 64.898,25.505 64.898,25.505 64.93,25.328 64.979,25.148 65.026,24.972 65.091,24.795 65.173,24.617 65.268,24.447 
		65.374,24.286 65.502,24.131 65.648,23.994 65.81,23.865 65.996,23.744 66.206,23.648 66.44,23.566 66.697,23.503 66.98,23.454 
		67.296,23.437 67.296,23.437 67.409,23.437 67.474,23.437 67.498,23.437 67.498,23.437 67.86,21.361 67.86,21.361 67.635,21.379 
		67.418,21.401 67.215,21.441 67.02,21.499 66.843,21.565 66.675,21.645 66.514,21.733 66.358,21.83 66.213,21.943 66.077,22.057 
		65.944,22.185 65.816,22.314 65.697,22.452 65.575,22.605 65.454,22.751 65.341,22.914 65.582,21.45 63.314,21.45 61.804,30.1 
		61.804,30.1 	"/>
	<polygon fill-rule="evenodd" clip-rule="evenodd" fill="#FFFFFF" points="40.418,30.1 42.696,30.1 42.736,30.1 43.513,25.505 
		43.543,25.328 43.583,25.158 43.623,24.989 43.681,24.826 43.747,24.666 43.826,24.512 43.924,24.365 44.036,24.229 44.167,24.109 
		44.311,23.987 44.49,23.891 44.683,23.802 44.91,23.729 45.158,23.662 45.433,23.623 45.749,23.6 45.773,23.6 45.804,23.607 
		45.844,23.615 45.886,23.615 45.926,23.623 45.959,23.631 45.983,23.641 45.99,23.641 45.999,23.607 46.023,23.512 46.057,23.365 
		46.096,23.189 46.151,22.977 46.207,22.751 46.282,22.525 46.354,22.3 46.419,22.145 46.499,21.992 46.58,21.84 46.66,21.702 
		46.733,21.58 46.791,21.483 46.83,21.428 46.848,21.401 46.839,21.401 46.806,21.395 46.767,21.389 46.711,21.379 46.653,21.379 
		46.587,21.371 46.532,21.361 46.477,21.361 46.225,21.379 45.999,21.401 45.788,21.441 45.596,21.49 45.408,21.557 45.24,21.637 
		45.087,21.718 44.941,21.813 44.804,21.919 44.676,22.041 44.552,22.162 44.433,22.3 44.311,22.438 44.198,22.59 44.076,22.751 
		43.955,22.914 44.247,21.45 41.929,21.45 40.418,30.1 40.418,30.1 40.418,30.1 	"/>
	<polyline fill="none" stroke="#FFFFFF" stroke-width="0.216" stroke-miterlimit="2.6131" points="40.418,30.1 42.696,30.1 
		42.736,30.1 43.513,25.505 43.513,25.505 43.543,25.328 43.583,25.158 43.623,24.989 43.681,24.826 43.747,24.666 43.826,24.512 
		43.924,24.365 44.036,24.229 44.167,24.109 44.311,23.987 44.49,23.891 44.683,23.802 44.91,23.729 45.158,23.662 45.433,23.623 
		45.749,23.6 45.749,23.6 45.773,23.6 45.804,23.607 45.844,23.615 45.886,23.615 45.926,23.623 45.959,23.631 45.983,23.641 
		45.99,23.641 45.99,23.641 45.999,23.607 46.023,23.512 46.057,23.365 46.096,23.189 46.151,22.977 46.207,22.751 46.282,22.525 
		46.354,22.3 46.354,22.3 46.419,22.145 46.499,21.992 46.58,21.84 46.66,21.702 46.733,21.58 46.791,21.483 46.83,21.428 
		46.848,21.401 46.848,21.401 46.839,21.401 46.806,21.395 46.767,21.389 46.711,21.379 46.653,21.379 46.587,21.371 46.532,21.361 
		46.477,21.361 46.477,21.361 46.225,21.379 45.999,21.401 45.788,21.441 45.596,21.49 45.408,21.557 45.24,21.637 45.087,21.718 
		44.941,21.813 44.804,21.919 44.676,22.041 44.552,22.162 44.433,22.3 44.311,22.438 44.198,22.59 44.076,22.751 43.955,22.914 
		44.247,21.45 41.929,21.45 40.418,30.1 40.418,30.1 	"/>
	<rect x="34.426" y="24.893" fill-rule="evenodd" clip-rule="evenodd" fill="#FFFFFF" width="1.061" height="1.26"/>
</g>
</svg>
