<?xml version="1.0" encoding="utf-8"?>
<!-- Generator: Adobe Illustrator 16.0.0, SVG Export Plug-In . SVG Version: 6.00 Build 0)  -->
<!DOCTYPE svg PUBLIC "-//W3C//DTD SVG 1.1//EN" "http://www.w3.org/Graphics/SVG/1.1/DTD/svg11.dtd">
<svg version="1.1" id="Layer_1" xmlns="http://www.w3.org/2000/svg" xmlns:xlink="http://www.w3.org/1999/xlink" x="0px" y="0px"
	 width="80px" height="48px" viewBox="0 0 80 48" enable-background="new 0 0 80 48" xml:space="preserve">
<g>
	<rect y="10" fill-rule="evenodd" clip-rule="evenodd" fill="#4B5058" width="80" height="28"/>
	<g>
		<polygon fill-rule="evenodd" clip-rule="evenodd" fill="#FFFFFF" points="70.486,31.369 69.908,31.369 69.908,16.807 
			70.486,16.807 70.486,31.369 		"/>
		<polygon fill-rule="evenodd" clip-rule="evenodd" fill="#FFFFFF" points="63.514,31.326 62.936,31.326 62.936,16.762 
			63.514,16.762 63.514,31.326 		"/>
		<polygon fill-rule="evenodd" clip-rule="evenodd" fill="#FFFFFF" points="9.752,23.273 10.33,19.072 10.92,23.273 13.748,23.273 
			15.123,16.787 12.908,16.787 12.301,20.889 11.693,16.787 8.994,16.787 8.389,20.781 7.791,16.787 5.482,16.787 6.875,23.273 
			9.752,23.273 		"/>
		<polygon fill-rule="evenodd" clip-rule="evenodd" fill="#FFFFFF" points="16.232,23.273 21.865,23.273 21.865,21.588 
			19.029,21.588 19.029,20.82 21.705,20.82 21.705,19.15 19.029,19.15 19.029,18.455 21.771,18.455 21.771,16.787 16.232,16.787 
			16.232,23.273 		"/>
		<path fill-rule="evenodd" clip-rule="evenodd" fill="#FFFFFF" d="M23.076,21.189c-0.008,0.082-0.008,0.164-0.008,0.234
			c0,1.236,1.121,1.961,3.234,1.961c2.082,0,3.215-0.746,3.215-2.117c0-1.18-0.664-1.531-2.324-2.09
			c-0.887-0.297-1.398-0.281-1.398-0.734c0-0.242,0.156-0.418,0.527-0.418c0.438,0,0.648,0.289,0.629,0.713h2.395v-0.271
			c0-1.146-1.039-1.836-2.949-1.836c-2.102,0-3.219,0.816-3.219,2.086c0,0.912,0.566,1.441,1.727,1.773
			c0.852,0.242,1.34,0.445,1.711,0.609c0.195,0.086,0.258,0.277,0.23,0.461c-0.035,0.254-0.188,0.408-0.574,0.408
			c-0.469,0-0.602-0.283-0.602-0.725v-0.055H23.076L23.076,21.189z"/>
		<polygon fill-rule="evenodd" clip-rule="evenodd" fill="#FFFFFF" points="36.389,16.787 30.221,16.787 30.221,18.521 
			31.939,18.521 31.939,23.273 34.682,23.273 34.682,18.521 36.389,18.521 36.389,16.787 		"/>
		<polygon fill-rule="evenodd" clip-rule="evenodd" fill="#FFFFFF" points="37.568,23.273 43.201,23.273 43.201,21.588 
			40.365,21.588 40.365,20.82 43.014,20.82 43.014,19.15 40.365,19.15 40.365,18.455 43.107,18.455 43.107,16.787 37.568,16.787 
			37.568,23.273 		"/>
		<path fill-rule="evenodd" clip-rule="evenodd" fill="#FFFFFF" d="M44.916,23.273h2.699v-2.311c0.094-0.008,0.18-0.008,0.25-0.008
			c0.648,0,0.746,0.234,0.848,0.938l0.07,0.48c0.039,0.287,0.121,0.586,0.211,0.9h2.738c-0.121-0.479-0.211-0.865-0.25-1.154
			l-0.09-0.695c-0.121-0.938-0.477-1.291-1.203-1.434c0.738-0.184,1.293-0.742,1.293-1.52c0-1.297-0.816-1.684-2.789-1.684h-3.777
			V23.273L44.916,23.273z M47.615,19.369V18.24c0.121-0.008,0.223-0.008,0.313-0.008c0.605,0,0.875,0.146,0.875,0.551
			c0,0.41-0.34,0.598-0.984,0.598C47.756,19.381,47.689,19.381,47.615,19.369L47.615,19.369z"/>
		<polygon fill-rule="evenodd" clip-rule="evenodd" fill="#FFFFFF" points="55.209,19.574 56.654,23.273 59.795,23.273 
			59.795,16.787 57.674,16.787 57.674,20.09 56.475,16.787 53.088,16.787 53.088,23.273 55.209,23.273 55.209,19.574 		"/>
		<polygon fill-rule="evenodd" clip-rule="evenodd" fill="#FFFFFF" points="33.74,27.314 35.189,31.014 38.326,31.014 
			38.326,24.529 36.205,24.529 36.205,27.83 35.01,24.529 31.623,24.529 31.623,31.014 33.74,31.014 33.74,27.314 		"/>
		<polygon fill-rule="evenodd" clip-rule="evenodd" fill="#FFFFFF" points="55.275,27.314 56.721,31.014 59.861,31.014 
			59.861,24.529 57.74,24.529 57.74,27.83 56.541,24.529 53.154,24.529 53.154,31.014 55.275,31.014 55.275,27.314 		"/>
		<path fill-rule="evenodd" clip-rule="evenodd" fill="#FFFFFF" d="M23.225,24.529v3.906c0,0.748,0.051,1.334,0.629,1.893
			c0.598,0.578,1.461,0.797,2.695,0.797c2.266,0,3.328-0.85,3.328-2.689v-3.906h-2.695v4.006c0,0.531-0.238,0.82-0.633,0.82
			c-0.418,0-0.637-0.271-0.637-0.82v-4.006H23.225L23.225,24.529z"/>
		<polygon fill-rule="evenodd" clip-rule="evenodd" fill="#FFFFFF" points="42.854,24.529 40.092,24.529 40.092,31.014 
			42.854,31.014 42.854,24.529 		"/>
		<path fill-rule="evenodd" clip-rule="evenodd" fill="#FFFFFF" d="M47.912,31.115c2.461,0,3.773-1.189,3.773-3.391
			c0-2.164-1.324-3.398-3.68-3.398c-2.379,0-3.715,1.234-3.715,3.408C44.291,29.889,45.619,31.115,47.912,31.115L47.912,31.115z
			 M47.994,25.832c0.637,0,0.789,0.563,0.789,1.791c0,1.371-0.16,1.994-0.801,1.994c-0.625,0-0.789-0.613-0.789-1.861
			C47.193,26.445,47.338,25.832,47.994,25.832L47.994,25.832z"/>
		<path fill-rule="evenodd" clip-rule="evenodd" fill="#FFFFFF" d="M73.459,16.693c-0.285,0-0.543,0.104-0.734,0.301
			c-0.207,0.207-0.32,0.479-0.32,0.758s0.105,0.539,0.309,0.74c0.203,0.205,0.465,0.318,0.746,0.318c0.273,0,0.543-0.113,0.75-0.316
			c0.203-0.191,0.309-0.451,0.309-0.742c0-0.281-0.109-0.547-0.305-0.742C74.01,16.803,73.744,16.693,73.459,16.693L73.459,16.693z
			 M74.377,17.762c0,0.244-0.094,0.471-0.266,0.637c-0.184,0.178-0.41,0.271-0.66,0.271c-0.234,0-0.465-0.098-0.641-0.273
			c-0.172-0.176-0.27-0.402-0.27-0.645s0.102-0.477,0.277-0.658c0.168-0.17,0.395-0.262,0.641-0.262c0.254,0,0.48,0.094,0.656,0.273
			C74.287,17.275,74.377,17.506,74.377,17.762L74.377,17.762z M73.486,17.133h-0.453v1.197h0.227v-0.512h0.227l0.242,0.512h0.254
			l-0.27-0.547c0.176-0.035,0.273-0.152,0.273-0.322C73.986,17.244,73.822,17.133,73.486,17.133L73.486,17.133z M73.447,17.279
			c0.211,0,0.309,0.059,0.309,0.205c0,0.141-0.098,0.191-0.305,0.191H73.26v-0.396H73.447L73.447,17.279z"/>
	</g>
</g>
</svg>
